<svg xmlns="http://www.w3.org/2000/svg" viewBox="0 0 800 1200">
  <defs>
    <linearGradient id="darioBg" x1="0" x2="0" y1="0" y2="1">
      <stop offset="0%" stop-color="#d8b26a" />
      <stop offset="100%" stop-color="#a97e3d" />
    </linearGradient>
  </defs>
  <rect width="800" height="1200" fill="url(#darioBg)" />
  <ellipse cx="400" cy="900" rx="220" ry="260" fill="#ded0b8" />
  <rect x="320" y="1120" width="80" height="220" rx="40" fill="#b59b7a" />
  <rect x="440" y="1120" width="80" height="220" rx="40" fill="#b59b7a" />
  <ellipse cx="400" cy="560" rx="230" ry="220" fill="#95724f" />
  <ellipse cx="250" cy="760" rx="150" ry="200" fill="#95724f" />
  <ellipse cx="550" cy="760" rx="150" ry="200" fill="#95724f" />
  <ellipse cx="400" cy="560" rx="140" ry="150" fill="#f7e8d8" />
  <polygon points="310,600 360,730 300,770" fill="#95724f" />
  <polygon points="490,600 440,730 500,770" fill="#95724f" />
  <polygon points="590,600 640,730 580,770" fill="#95724f" />
  <rect x="320" y="640" width="200" height="70" rx="20" fill="#2c2424" />
  <rect x="360" y="710" width="150" height="18" rx="8" fill="#c79c32" />
  <line x1="420" y1="710" x2="420" y2="728" stroke="#8b6a1f" stroke-width="5" />
  <path d="M320 500 Q400 430 480 500 L480 570 Q400 550 320 570 Z" fill="#2c2424" />
  <rect x="300" y="500" width="200" height="40" fill="#2c2424" />
  <polygon points="310,820 360,780 420,990 360,1020" fill="#cab89a" />
  <polygon points="490,820 440,780 380,990 440,1020" fill="#cab89a" />
  <rect x="520" y="900" width="140" height="200" rx="60" fill="#d0c4ac" />
  <rect x="580" y="860" width="120" height="220" rx="60" fill="#cfc4b2" />
  <rect x="620" y="900" width="80" height="200" rx="40" fill="#bab1a0" />
  <rect x="600" y="820" width="120" height="120" rx="50" fill="#d0c4ac" />
  <rect x="620" y="780" width="80" height="80" rx="40" fill="#c0b6a5" />
</svg>
